<svg xmlns="http://www.w3.org/2000/svg" viewBox="0 0 48 48">
    <path d="M34.752 26.946c-.065-6.347 5.178-9.393 5.414-9.539-2.943-4.306-7.523-4.896-9.159-4.966-3.898-.396-7.609 2.295-9.582 2.295-1.973 0-5.021-2.237-8.251-2.18-4.247.065-8.163 2.469-10.343 6.271-4.409 7.652-1.128 18.984 3.167 25.191 2.099 3.032 4.599 6.441 7.881 6.32 3.166-.127 4.362-2.047 8.189-2.047 3.826 0 4.902 2.047 8.251 1.982 3.406-.064 5.564-3.096 7.649-6.143 2.411-3.521 3.406-6.931 3.466-7.107-.076-.032-6.647-2.553-6.712-10.132l.03.055zM29.188 11.25c1.744-2.114 2.921-5.052 2.6-7.98-2.51.102-5.551 1.672-7.354 3.785-1.615 1.869-3.028 4.854-2.647 7.717 2.805.218 5.666-1.408 7.401-3.522z"/>
</svg>
